<?xml version="1.0" encoding="UTF-8"?>
<svg id="Capa_2" data-name="Capa 2" xmlns="http://www.w3.org/2000/svg" viewBox="0 0 955.85 340.54">
  <defs>
    <style>
      .cls-1 {
        fill: #e3057d;
      }

      .cls-1, .cls-2, .cls-3 {
        stroke-width: 0px;
      }

      .cls-3 {
        fill: #53a5b1;
      }
    </style>
  </defs>
  <g id="Capa_1-2" data-name="Capa 1">
    <g>
      <path class="cls-2" d="M5.33,255.27h31.86c2.94,0,5.33-2.39,5.33-5.33v-79.71l41.05,82.57c.9,1.81,2.75,2.96,4.77,2.96h33.89c2.94,0,5.33-2.39,5.33-5.33V90.52c0-2.94-2.39-5.33-5.33-5.33h-31.86c-2.94,0-5.33,2.39-5.33,5.33v79.71l-41.05-82.09c-.9-1.81-2.75-2.95-4.77-2.95H5.33c-2.94,0-5.33,2.39-5.33,5.33v159.42c0,2.94,2.39,5.33,5.33,5.33Z"/>
      <path class="cls-2" d="M398.64,255.27h31.86c2.94,0,5.33-2.39,5.33-5.33v-79.71l41.05,82.57c.9,1.81,2.75,2.96,4.77,2.96h33.89c2.94,0,5.33-2.39,5.33-5.33V90.52c0-2.94-2.39-5.33-5.33-5.33h-31.86c-2.94,0-5.33,2.39-5.33,5.33v79.71l-41.05-82.09c-.9-1.81-2.75-2.95-4.77-2.95h-33.9c-2.94,0-5.33,2.39-5.33,5.33v159.42c0,2.94,2.39,5.33,5.33,5.33Z"/>
      <path class="cls-2" d="M181.2,127.72v20.88h36.7c2.94,0,5.33,2.39,5.33,5.33v31.86c0,2.94-2.39,5.33-5.33,5.33h-36.7v21.64h57.96c2.94,0,5.33,2.39,5.33,5.33v32.32c0,2.95-2.4,5.34-5.35,5.33l-95.64-.4c-2.93-.01-5.31-2.39-5.31-5.33V90.52c0-2.94,2.39-5.33,5.33-5.33h95.64c2.94,0,5.33,2.39,5.33,5.33v31.86c0,2.94-2.39,5.33-5.33,5.33h-57.96Z"/>
      <path class="cls-2" d="M318.9,255.27h0c-35.22,0-63.78-28.56-63.78-63.78v-42.52c0-35.22,28.56-63.78,63.78-63.78h0c35.22,0,63.78,28.56,63.78,63.78v42.52c0,35.22-28.56,63.78-63.78,63.78ZM318.9,212.75c11.74,0,21.26-9.52,21.26-21.26v-42.52c0-11.74-9.52-21.26-21.26-21.26h0c-11.74,0-21.26,9.52-21.26,21.26v42.52c0,11.74,9.52,21.26,21.26,21.26h0Z"/>
      <polygon class="cls-3" points="393.31 63.93 478.35 .16 435.83 63.93 393.31 63.93"/>
      <polygon class="cls-3" points="127.56 276.53 42.52 340.31 85.04 276.53 127.56 276.53"/>
      <g>
        <path class="cls-1" d="M516.25,63.43c19.2-6.66,45.4-12.85,77.88-18.4,32.67-5.57,70.79-10.58,113.31-14.88,42.46-4.28,87.12-7.36,132.74-9.16,5.65-.22,10.09-4.87,10.09-10.48,0-.14,0-.28,0-.42-.23-5.79-5.1-10.33-10.9-10.08-46.05,1.81-91.15,4.92-134.03,9.25-42.99,4.35-81.59,9.42-114.73,15.07-33.61,5.74-60.94,12.22-81.23,19.26-4.34,1.5-7.06,5.57-7.06,9.92,0,1.14.19,2.3.58,3.44,1.51,4.34,5.57,7.06,9.92,7.06,1.14,0,2.3-.19,3.44-.58Z"/>
        <path class="cls-1" d="M642.36,174.17c3.68-1.84,5.8-5.55,5.8-9.4,0-1.58-.36-3.18-1.11-4.69-5.06-10.11-18.54-8-24.31-7.1-8.13,1.28-18,3.5-29.35,6.58-.57.15-1.14.31-1.71.47-.07.02-.14.04-.21.06h-.03c-.2.06-.39.12-.59.17-.02,0-.05.01-.07.02-.01,0-.03,0-.04.01-.22.06-.44.12-.66.18-.04.01-.08.02-.12.03-.24.07-.49.13-.73.2-.03,0-.06.02-.1.03-.12.03-.25.07-.37.1-.06.02-.11.03-.17.05-.03,0-.06.02-.09.03-.08.02-.16.04-.24.06-.01,0-.03,0-.04.01-.03,0-.06.02-.09.02-.42.11-.84.23-1.26.35-.03,0-.06.02-.1.03-3.33.92-6.73,1.86-10.22,2.83,3.41-9.6,6.9-19,10.44-28.11,7.18-18.49,14.59-35.43,22.03-50.35,5.39-10.79,10.58-19.83,15.44-26.86,1.26-1.82,1.86-3.9,1.87-5.96,0-3.33-1.58-6.61-4.53-8.65-4.77-3.3-11.31-2.11-14.61,2.66-5.43,7.85-11.14,17.75-16.96,29.44-7.73,15.5-15.4,33.03-22.81,52.12-.12.32-.25.63-.37.95-.05.13-.1.25-.15.38l-.11.3c-.05.13-.1.26-.15.39-.07.17-.13.34-.2.52-.05.12-.1.25-.14.37-.02.05-.04.1-.06.15-.02.05-.04.1-.06.16h0s-.04.09-.05.14c-.01.03-.02.06-.03.09-.03.07-.05.13-.08.2-.02.05-.04.1-.06.15-.03.08-.06.15-.09.23-.02.04-.03.09-.05.13-4.37,11.39-8.65,23.2-12.79,35.23,0,.01,0,.03-.01.04,0,.02-.01.03-.02.05-.36,1.06-.72,2.13-1.09,3.19-4.2,1.2-7.59,2.17-12.51,3.5-5.6,1.51-8.91,7.27-7.4,12.87,1.26,4.68,5.5,7.77,10.13,7.77.63,0,1.26-.08,1.9-.2-5.77,18.06-11.01,35.51-15.61,51.95-5.18,18.48-9.37,35.18-12.46,49.64-3.22,15.04-4.86,25.87-5.02,33.13-.13,5.8,4.47,10.6,10.27,10.72.08,0,.16,0,.23,0,5.69,0,10.37-4.55,10.49-10.27.09-4.01.95-12.33,4.56-29.19,3-14.04,7.08-30.31,12.14-48.38,5.1-18.26,11.01-37.78,17.57-58.02.69-2.13,1.38-4.25,2.08-6.35,11.03-3.11,21.09-5.9,30.62-8.5,10.61-2.88,19.73-4.94,27.09-6.1,2.7-.42,4.39-.52,5.38-.53,3.08,2.29,7.31,2.8,10.97.97Z"/>
        <path class="cls-1" d="M830.59,231.78c4.37-3.82,4.81-10.45.99-14.82-3.82-4.37-10.45-4.81-14.82-.99-1.99,1.74-4.04,3.56-6.15,5.43-19.64,17.4-46.55,41.22-66.67,37.56-3.68-.75-6.79-3.69-8.84-7.9.31-.22.63-.43.96-.66,21.37-14.59,61.15-41.76,54.85-75.22-.09-.46-.2-.91-.35-1.35-3.59-10.88-11.21-14.09-15.44-15.03-12.46-2.78-26.74,6.61-35.23,15.54-16.54,16.77-26.98,38.88-28.29,59.68-3.87-2.76-9.26-2.62-12.99.64-3.89,3.4-7.93,6.84-11.99,10.23-6.63,5.52-12.63,10.31-17.85,14.23-3.69,2.51-7,4.54-9.88,6.06-.1-1.1-.17-2.51-.17-4.27,0-6.78,1.23-17.23,3.65-31.06,2.44-13.92,5.71-27.31,9.72-39.8,4.02-12.51,8.53-24.28,13.42-34.97,4.88-10.68,10.08-20.58,15.45-29.43,5.37-8.84,10.71-16.71,15.88-23.39,3.55-4.58,2.71-11.18-1.88-14.73-4.59-3.55-11.18-2.71-14.73,1.87-5.65,7.3-11.45,15.83-17.23,25.34-5.8,9.55-11.39,20.18-16.6,31.61-5.23,11.44-10.05,23.99-14.31,37.28-4.3,13.4-7.81,27.73-10.41,42.6-2.67,15.24-3.97,26.58-3.97,34.69,0,10.52,1.98,17.45,6.25,21.82,1.77,1.82,5.77,5.03,11.89,5.03,2.69,0,5.79-.62,9.29-2.25,4.57-2.11,9.68-5.11,15.65-9.18.13-.09.26-.18.38-.27,5.55-4.16,11.91-9.22,18.89-15.04,4.19-3.49,8.35-7.04,12.36-10.55.1-.09.19-.19.29-.28,3.47,15.14,13.7,26.7,27.19,29.37.04,0,.08.02.13.02,2.77.51,5.54.76,8.31.76,27.38,0,54.22-23.78,76.19-43.23,2.07-1.84,4.09-3.63,6.05-5.33ZM754.91,189.02c.05-.05.1-.11.15-.16,5.64-5.96,12.47-9.52,15.08-9.59.07.13.16.3.25.53,2.32,16.34-19.78,34.56-36.54,46.56,2.94-13.16,10.4-26.54,21.06-37.34Z"/>
        <path class="cls-1" d="M952.08,185.23c-4.45-3.71-11.08-3.11-14.79,1.35-1.18,1.42-3.88,4.28-10.06,9.91-4.88,4.46-10.6,8.88-17.02,13.14-6.08,4.04-12.73,7.32-19.75,9.75-6.01,2.07-11.7,2.41-17.4,1.02-3.06-.75-5.79-1.97-8.25-3.66,3.56-5.93,6.82-11.31,9.72-16.01,4.11-6.65,8.12-12.48,11.94-17.32,3.51-4.46,7.76-8.59,12.62-12.28,2.72-2.06,4.15-5.2,4.15-8.37,0-2.21-.7-4.45-2.14-6.34-3.5-4.62-10.09-5.52-14.71-2.02-6.28,4.77-11.81,10.16-16.42,16.02-4.3,5.47-8.78,11.95-13.31,19.28-1.76,2.85-3.65,5.95-5.65,9.25-.77-1.53-1.49-3.08-2.15-4.67-2.81-6.76-4.94-13.43-6.34-19.84-1.48-6.82-2.79-12.62-3.88-17.23-1.33-5.64-6.99-9.14-12.63-7.8-4.83,1.14-8.09,5.46-8.08,10.22,0,.8.09,1.61.28,2.42,1.06,4.49,2.34,10.16,3.79,16.85,1.66,7.64,4.17,15.53,7.47,23.45,2.5,6.02,5.64,11.71,9.34,16.99-5.18,8.65-11.39,18.85-18.55,30.44-1.06,1.72-1.57,3.63-1.57,5.51,0,3.52,1.77,6.96,4.98,8.94,1.72,1.06,3.63,1.57,5.51,1.57,3.52,0,6.96-1.77,8.94-4.98,5.96-9.65,11.27-18.33,15.89-26,4.25,2.74,8.95,4.75,14.07,6,3.92.95,7.88,1.43,11.86,1.43,5.77,0,11.58-1,17.37-3,8.71-3.01,16.96-7.08,24.51-12.1,7.32-4.85,13.9-9.95,19.56-15.12,5.74-5.23,9.67-9.15,12.04-11.98,1.64-1.96,2.43-4.34,2.43-6.71,0-3.01-1.29-6-3.78-8.08Z"/>
      </g>
    </g>
  </g>
</svg>